<?xml version="1.0" encoding="utf-8"?>
<!-- Generator: Adobe Illustrator 18.1.1, SVG Export Plug-In . SVG Version: 6.00 Build 0)  -->
<svg version="1.1" id="Capa_1" xmlns="http://www.w3.org/2000/svg" xmlns:xlink="http://www.w3.org/1999/xlink" x="0px" y="0px"
	 width="612px" height="612px" viewBox="0 90 612 612" enable-background="new 0 90 612 612" xml:space="preserve">
<g>
	<g>
		<g>
			<g>
				<path fill="#FFFFFF" d="M0,281.2v76.5h267.7V243H38.2C17.1,243,0,260.1,0,281.2z"/>
				<path fill="#FFFFFF" d="M535.5,147.4c0-31.7-23.7-57.4-76.5-57.4c-49.5,0-88.4,22.3-114.7,48.1c-11.6-6.8-24.9-11-39.4-11
					c-13.8,0-26.7,3.9-37.9,10.3C240.7,111.8,202,90,153,90c-52.8,0-76.5,25.7-76.5,57.4s23.7,57.4,76.5,57.4h153l0-0.3h0.1
					l-0.1,0.3h153C511.8,204.7,535.5,179,535.5,147.4z M237.6,166.5H153c-17.4,0-38.2-3.3-38.2-19.1s20.8-19.1,38.2-19.1
					c38,0,66.9,17,86.3,35.3L237.6,166.5z M371.3,164.9c19.4-18.9,48.9-36.6,87.7-36.6c17.4,0,38.2,3.3,38.2,19.1
					s-20.8,19.1-38.2,19.1h-86.9L371.3,164.9z"/>
				<path fill="#FFFFFF" d="M38.2,663.7c0,21.1,17.1,38.2,38.2,38.2h191.2V396H38.2V663.7z"/>
				<path fill="#FFFFFF" d="M573.7,243H345.9v114.7H612v-76.5C612,260.1,594.9,243,573.7,243z"/>
				<path fill="#FFFFFF" d="M345.9,702h189.6c21.1,0,38.2-17.1,38.2-38.2V396H345.9V702z"/>
			</g>
		</g>
	</g>
</g>
</svg>
